{"title":"Resident Evil Retribution 2012 TS XViD - ARiSE","uid":7671139,"size":1508815223,"categoryP":"video","categoryS":"movies","magnet":"?xt=urn:btih:1e29c06143413df25f9d70f6577c710db29897b7&amp;dn=Resident+Evil+Retribution+2012+TS+XViD+-+ARiSE&amp;tr=udp%3A%2F%2Ftracker.openbittorrent.com%3A80&amp;tr=udp%3A%2F%2Fopen.demonii.com%3A1337&amp;tr=udp%3A%2F%2Ftracker.coppersurfer.tk%3A6969&amp;tr=udp%3A%2F%2Fexodus.desync.com%3A6969","seeders":1,"leechers":0,"uploader":"Gh0stNet","files":3,"time":1348584229,"description":"TITLE: Resident Evil Retribution 2012 TS XViD - ARiSE\n\n\nIMDB: http://uk.imdb.com/title/tt1855325/\n\n\nSOURCES:\nAUDIO - MATiNE / Toothfairy\nVIDEO - MATiNE 1080p\n\n\nSTATS:\nVideo\nID : 0\nFormat : MPEG-4 Visual\nFormat profile : Advanced Simple@L5\nFormat settings, BVOP : 2\nFormat settings, QPel : No\nFormat settings, GMC : No warppoints\nFormat settings, Matrix : Default (MPEG)\nMuxing mode : Packed bitstream\nCodec ID : XVID\nCodec ID/Hint : XviD\nDuration : 1h 25mn\nBit rate : 2 170 Kbps\nWidth : 720 pixels\nHeight : 304 pixels\nDisplay aspect ratio : 2.35:1\nFrame rate : 25.000 fps\nColor space : YUV\nChroma subsampling : 4:2:0\nBit depth : 8 bits\nScan type : Progressive\nCompression mode : Lossy\nBits/(Pixel*Frame) : 0.397\nStream size : 1.29 GiB (94%)\nWriting library : XviD 64\n\nAudio\nID : 1\nFormat : MPEG Audio\nFormat version : Version 1\nFormat profile : Layer 3\nCodec ID : 55\nCodec ID/Hint : MP3\nDuration : 1h 25mn\nBit rate mode : Constant\nBit rate : 128 Kbps\nChannel(s) : 2 channels\nSampling rate : 48.0 KHz\nCompression mode : Lossy\nStream size : 78.2 MiB (6%)\nAlignment : Split accross interleaves\nInterleave, duration : 40 ms (1.00 video frame)\nInterleave, preload duration : 500 ms\n\n\n\nWORKDONE:\n\nThe source video we used was pretty good but had alot of faults...there was colour issues,too dark,lots of glares and the\n1080p seem to have some grps of pixels that flashed now and again,like something want wrong with the encode ??? pass lol.\nAnyway cleaned up the video the best we could but the brightness issue was a problem as it needed to be darker to make it a\ntrue black but also it was too dark to start with lol ...\nWell in the end we had to push up the contrast and brightness and then lower the intes to dull the glares down....the black isn't\na true black,but looks better now ,well too us\nAudio slightly cleaned and then remuxed back to our rip ....oh convert back to 2 channel mp3.Pointless having a 5.1 from a two channel\naudio ....takes more space and all you'll get is the 2 channels coming out of 5.\nAnyway each to their own on that one .......\n\nOh also resyncd the ending as it was 200/300ms oos,well for us anyways.\n &lt;a href=&quot;\nhttp://old.rapidimg.org/images/B6pE.png&quot; rel=&quot;nofollow&quot; target=&quot;_NEW&quot;&gt;\nhttp://old.rapidimg.org/images/B6pE.png&lt;/a&gt; &lt;a href=&quot;\nhttp://old.rapidimg.org/images/8Wt6d.png&quot; rel=&quot;nofollow&quot; target=&quot;_NEW&quot;&gt;\nhttp://old.rapidimg.org/images/8Wt6d.png&lt;/a&gt; &lt;a href=&quot;\nhttp://old.rapidimg.org/images/gY6Cz.png&quot; rel=&quot;nofollow&quot; target=&quot;_NEW&quot;&gt;\nhttp://old.rapidimg.org/images/gY6Cz.png&lt;/a&gt; &lt;a href=&quot;\nhttp://old.rapidimg.org/images/iohM.png&quot; rel=&quot;nofollow&quot; target=&quot;_NEW&quot;&gt;\nhttp://old.rapidimg.org/images/iohM.png&lt;/a&gt; &lt;a href=&quot;\nhttp://old.rapidimg.org/images/rtXvM.png&quot; rel=&quot;nofollow&quot; target=&quot;_NEW&quot;&gt;\nhttp://old.rapidimg.org/images/rtXvM.png&lt;/a&gt;","torrent":{"xt":"urn:btih:1e29c06143413df25f9d70f6577c710db29897b7","amp;dn":"Resident+Evil+Retribution+2012+TS+XViD+-+ARiSE","amp;tr":["udp%3A%2F%2Ftracker.openbittorrent.com%3A80","udp%3A%2F%2Fopen.demonii.com%3A1337","udp%3A%2F%2Ftracker.coppersurfer.tk%3A6969","udp%3A%2F%2Fexodus.desync.com%3A6969"],"infoHash":"1e29c06143413df25f9d70f6577c710db29897b7","infoHashBuffer":{"type":"Buffer","data":[30,41,192,97,67,65,61,242,95,157,112,246,87,124,113,13,178,152,151,183]},"announce":[],"urlList":[]}}